# xmcd
#
# Track frame offsets:
#	200
#	19647
#	41670
#	67880
#	88352
#	103815
#	116505
#	129042
#	145562
#	161465
#	177330
#	189792
#	213110
#	225745
#	240442
#	264977
#	289282
#
# Disc length: 4172 seconds
#
# Revision: 0
# Processed by: cddbd v1.4PL0 Copyright (c) Steve Scherf et al.
# Submitted via: dBpowerAMP V4.0
#
DISCID=dc104a11
DTITLE=Various Artist - Pastures of Plenty: An Austin Celebratin of Woody Guthrie
DYEAR=1900
DGENRE=Country
TTITLE0=Jimmy LaFave - Oklahoma Hills
TTITLE1=Sarah Elizabeth Campbell - Ramblin' Man
TTITLE2=Ray Wylie Hubbard - Jesus Christ/Vigilante Man
TTITLE3=Michael Fracasso - 1913 Massacre
TTITLE4=Rich Brotherton - The Sinking of the Reuben James
TTITLE5=Lisa Mednick - Hard Travelin'
TTITLE6=David Haily - Pretty Boy Floyd
TTITLE7=The Red Dirt Rangers - The Ranger's Command
TTITLE8=Christine Albert - Pastures of Plenty
TTITLE9=Mary Reynolds - Gypsy Davy
TTITLE10=Steve Young - Do Re Mi
TTITLE11=Sarah Elizabeth Campbell - Hobo's Lullabye
TTITLE12=David Halley - I Ain't Got No Home
TTITLE13=Michael Fracasso - Dead or Alive
TTITLE14=Butch Hancock - Belle Starr
TTITLE15=Jimmy Lafave - This Land Is Your Land
TTITLE16=Grand Finale - Goodnight Irene
EXTD=Pastures of Plenty: An Austin Celebratin of Woody Guthrie\n\n
EXTT0=
EXTT1=
EXTT2=
EXTT3=
EXTT4=
EXTT5=
EXTT6=
EXTT7=
EXTT8=
EXTT9=
EXTT10=
EXTT11=
EXTT12=
EXTT13=
EXTT14=
EXTT15=
EXTT16=
PLAYORDER=
